<?xml version="1.0" encoding="UTF-8"?>
<svg width="39px" height="30px" viewBox="0 0 39 30" version="1.1" xmlns="http://www.w3.org/2000/svg" xmlns:xlink="http://www.w3.org/1999/xlink">
    <!-- Generator: Sketch 43.2 (39069) - http://www.bohemiancoding.com/sketch -->
    <title>Group@1x</title>
    <desc>Created with Sketch.</desc>
    <defs></defs>
    <g id="Page-1" stroke="none" stroke-width="1" fill="none" fill-rule="evenodd" opacity="0.300000012">
        <g id="SampleServe-ui-ea.1.3" transform="translate(-30.000000, -964.000000)" fill="#FFFFFF">
            <g id="Brand" transform="translate(30.000000, 964.000000)">
                <g id="Group">
                    <g id="logo-icon">
                        <path d="M6.57154527,29.7983085 C-2.28079873,28.4355465 -2.2686171,15.0182139 7.08822369,14.3023504 C6.18921172,11.8571581 7.36890232,9.35113473 9.46819031,8.16720369 C13.0278475,6.15758174 17.242383,8.3951081 17.242383,12.5162768 L17.242383,15.6976481 L10.9163394,24.5257831 C10.9163394,24.5257831 9.49259212,26.2142495 10.9163394,26.2142495 L26.4447175,26.2142495 C27.8318813,26.2142495 26.4447175,24.5257831 26.4447175,24.5257831 L20.1146262,15.6976481 L20.1146262,9.74973616 C20.1146262,0.990720403 35.288812,2.06073779 32.9130472,14.1883596 C41.5091144,15.6691986 40.8257481,29.7820406 31.1840268,29.7820406 C30.3744881,29.7820406 29.5812173,29.883657 28.7757649,29.883657 L8.74808638,29.883657 C7.99953295,29.883657 7.30383083,29.9082515 6.57154527,29.7983085" id="Fill-1"></path>
                        <path d="M14.7776411,20.8715262 L12.0276767,24.7120163 C11.6167395,25.2814689 11.5149304,25.3912963 12.4709955,25.3912963 L25.1514938,25.3912963 C25.9774545,25.3912963 25.6601924,25.0943113 25.3630918,24.6835282 L22.0353481,20.0457197 C19.3827982,22.2384901 17.4626881,18.6502677 14.7776411,20.8715262" id="Fill-2"></path>
                        <path d="M21.7884251,21.3178519 C22.3457347,21.3178519 22.7932939,21.7694974 22.7932939,22.3227592 C22.7932939,22.8800688 22.3457347,23.3275895 21.7884251,23.3275895 C21.2352018,23.3275895 20.7876426,22.8800688 20.7876426,22.3227592 C20.7876426,21.7694974 21.2352018,21.3178519 21.7884251,21.3178519" id="Fill-3"></path>
                        <path d="M23.0876576,23.2838744 C22.8191606,23.2838744 22.5994672,23.5035292 22.5994672,23.7760739 C22.5994672,24.0446094 22.8191606,24.2642643 23.0876576,24.2642643 C23.3602023,24.2642643 23.5798957,24.0446094 23.5798957,23.7760739 C23.5798957,23.5035292 23.3602023,23.2838744 23.0876576,23.2838744" id="Fill-4"></path>
                        <path d="M15.562109,2.6599128 C16.6360584,2.6599128 17.5065823,3.53059092 17.5065823,4.6045789 C17.5065823,5.67852834 16.6360584,6.54924501 15.562109,6.54924501 C14.488121,6.54924501 13.6174429,5.67852834 13.6174429,4.6045789 C13.6174429,3.53059092 14.488121,2.6599128 15.562109,2.6599128" id="Fill-5"></path>
                        <path d="M17.9176738,7.01600188 C17.2870431,7.01600188 16.7784987,7.52859406 16.7784987,8.1590705 C16.7784987,8.78977822 17.2870431,9.29824561 17.9176738,9.29824561 C18.5481888,9.29824561 19.0607809,8.78977822 19.0607809,8.1590705 C19.0607809,7.52859406 18.5481888,7.01600188 17.9176738,7.01600188" id="Fill-6"></path>
                        <path d="M17.7706847,0 C17.3070503,0 16.9326965,0.37824731 16.9326965,0.842267171 C16.9326965,1.30586299 17.3070503,1.6802168 17.7706847,1.6802168 C18.2344732,1.6802168 18.6129133,1.30586299 18.6129133,0.842267171 C18.6129133,0.37824731 18.2344732,0 17.7706847,0" id="Fill-7"></path>
                    </g>
                </g>
            </g>
        </g>
    </g>
</svg>