<?xml version="1.0" encoding="utf-8"?>
<!-- Generator: Adobe Illustrator 21.0.0, SVG Export Plug-In . SVG Version: 6.00 Build 0)  -->
<svg version="1.1" id="Layer_1" xmlns="http://www.w3.org/2000/svg" xmlns:xlink="http://www.w3.org/1999/xlink" x="0px" y="0px"
	 viewBox="0 0 260.1 104.3" style="enable-background:new 0 0 260.1 104.3;" xml:space="preserve">
<style type="text/css">
	.st0{fill:#6F2488;}
	.st1{fill:#008752;}
</style>
<g id="Layer_1_1_">
	<g>
		<path class="st0" d="M92.6,33.9c0-16.2,0-19.1-0.2-22.4c-0.2-3.5-1.2-5.2-5.2-5.9c-1-0.2-3-0.3-4.1-0.3c-0.5,0-1-0.2-1-0.6
			c0-0.6,0.6-0.8,1.9-0.8c5.5,0,13.1,0.3,13.7,0.3c0.9,0,25.1,0,27.8-0.1c2.3-0.1,4.3-0.3,5.2-0.5c0.6-0.1,1.1-0.5,1.7-0.5
			c0.4,0,0.5,0.4,0.5,0.9c0,0.7-0.6,2-1,4.9c-0.1,1-0.4,5.6-0.6,6.8c-0.1,0.5-0.4,1.1-0.9,1.1c-0.7,0-1-0.5-1-1.3
			c0-0.7-0.1-2.5-0.7-3.7c-0.9-1.7-2.1-2.9-8.6-3.5c-2.1-0.2-15.3-0.3-16.7-0.3c-0.5,0-0.7,0.3-0.7,1v28.6c0,0.7,0.1,1,0.7,1
			c1.6,0,16.5,0,19.3-0.2c2.9-0.2,4.6-0.4,5.7-1.5c0.9-0.8,1.3-1.3,1.8-1.3c0.4,0,0.6,0.2,0.6,0.8c0,0.6-0.6,2.4-1,5.8
			c-0.2,2.1-0.5,5.9-0.5,6.6c0,0.8,0,2-0.9,2c-0.6,0-0.9-0.4-0.9-0.9c0-1,0-2.1-0.5-3.4c-0.5-1.4-1.6-3.2-6.3-3.6
			c-3.3-0.3-15.3-0.5-17.4-0.5c-0.6,0-0.9,0.3-0.9,0.7v9.1c0,3.5-0.1,15.5,0,17.7c0.4,7.1,2.2,8.5,14.1,8.5c3.2,0,8.5,0,11.7-1.1
			c3.2-1.1,4.6-3.2,5.5-7.5c0.2-1.1,0.5-1.6,1.1-1.6c0.7,0,0.7,0.8,0.7,1.6c0,0.8-1,7.9-1.6,10.1c-0.9,2.7-1.8,2.7-6.6,2.7
			c-18.4,0-26.5-0.6-30-0.6c-0.6,0-8.3,0.3-11.9,0.3c-1.3,0-1.9-0.2-1.9-0.8c0-0.3,0.2-0.6,1-0.6c1.1,0,2.6-0.2,3.6-0.4
			c2.4-0.4,3-2.7,3.5-5.7c0.6-4.4,0.6-12.5,0.6-22.5L92.6,33.9L92.6,33.9z"/>
		<path class="st0" d="M142,80.9c-1.7-0.7-1.8-1.1-1.8-3.9c0-5.2,0.5-9.3,0.6-11c0.1-1.1,0.4-1.7,1-1.7c0.7,0,0.9,0.3,0.9,1.1
			c0,0.9,0,2.4,0.4,3.8c1.8,7.7,9.9,10.6,18,10.6c11.7,0,17.4-7.1,17.4-13.8c0-7.2-3.5-11.3-14-18.7l-5.5-3.8
			c-12.9-9-15.8-15.4-15.8-22.5c0-11.1,9.7-18.6,25.2-18.6c4.7,0,8.3,0.4,11.3,1c2.3,0.4,3.3,0.5,4.3,0.5s1.2,0.2,1.2,0.7
			c0,0.5-0.5,3.9-0.5,11c0,1.7-0.2,2.4-0.9,2.4c-0.7,0-0.9-0.5-1-1.3c-0.1-1.2-0.9-4-1.6-5.2c-0.7-1.1-4-5.5-15.2-5.5
			c-8.4,0-15,4.5-15,12c0,5.9,3.4,9.4,14.8,17.4l3.4,2.3c14.4,9.6,17.8,16.1,17.8,24.3c0,4.2-1.9,12.1-10.3,17.2
			c-5.2,3.1-11.8,4.4-18.4,4.4C152.6,83.7,147,82.9,142,80.9z"/>
		<path class="st0" d="M200.5,72.5c-10-9-12.5-20.8-12.5-30.7c0-6.9,2.4-19.1,11.6-28.3c6.2-6.2,15.6-11.1,31.6-11.1
			c4.1,0,9.9,0.3,15,1.2c3.9,0.7,7.3,1.3,10.6,1.6c1.1,0.1,1.3,0.5,1.3,1.1c0,0.8-0.3,2.1-0.5,5.8c-0.2,3.4-0.2,9.1-0.3,10.7
			c-0.1,1.6-0.3,2.2-0.9,2.2c-0.7,0-0.8-0.7-0.8-2.2c0-4-1.7-8.3-4.4-10.6c-3.6-3.1-11.6-5.9-20.7-5.9c-13.8,0-20.2,4-23.8,7.6
			c-7.6,7.3-9.3,16.5-9.3,27c0,19.8,15.2,37.9,37.4,37.9c7.8,0,13.9-0.9,18-5.2c2.2-2.3,3.5-6.8,3.8-8.7c0.2-1.1,0.4-1.6,1-1.6
			c0.5,0,0.7,0.7,0.7,1.6c0,0.7-1.2,9.7-2.3,13.3c-0.6,2-0.8,2.2-2.7,3c-4.1,1.7-12,2.4-18.6,2.4C219.2,83.7,208.7,79.8,200.5,72.5z
			"/>
	</g>
	<g>
		<g>
			<path class="st1" d="M80.6,78.3c0-0.5-8.7-6.8-14.5-14.3c-5.6-7.2-9.5-7.7-4.6-7.6c4.7,0.1,4.2,0.3,4.7-0.3
				c0.5-0.6,1.2-1.3,2.6-1.5c1.4-0.2,1.6-0.1,2.3-1.3c0.7-1.2,1-1.2,2.3-2.7c1.2-1.6,0.1-2.3,1.8-3c1.7-0.8,2.2-0.8,2-1.2
				c-0.2-0.4-2.1-1.9-1.8-2.6c0.3-0.7,1.4-1.1,2.4-3.8c1-2.7,0-3.8,0-3.8s0.3-1.1,1-2.4c0.7-1.3,1.5-2.4,1.3-2.5
				c-0.2-0.1-1.4-0.3-1.5-0.6c-0.1-0.3-0.1-0.7-0.5-0.7c-0.4,0-0.9,0.2-2-0.5c-1-0.7-1.3-1.4-2.5-0.5c-1.2,0.9-1.8,1.1-2.7,1.4
				c-0.9,0.3-1.4,0.3-0.7-1.2c0.6-1.5,1.3-2.3,1.5-3.8c0.1-1.5,0-3,0-4.3c0-1.4-0.1-1.9,0.1-3.1c0.2-1.2,0.1-1.4-0.6-1.3
				c-0.7,0.1-1.4,0.7-1.5,0.1c-0.1-0.6-0.3-1.6-0.1-3.1c0.1-1.4,0.6-2-0.3-2.3c-0.9-0.3-2.1-0.5-2.1-1.4c0.1-0.8,0.6-1,0.3-2.4
				C67.3,6,66,6.5,66,4.9c0-1.6,0.7-2.6,0.2-3.3c-0.4-0.6-1,0.5-1.4-0.4c-0.4-0.9-0.7-1.4-1.2-1.1c-0.5,0.3-0.4,0.6-1,1.2
				c-0.6,0.6-0.5,1.3-1.2,1.6s-1,0.6-1.6,1.3c-0.6,0.7-0.4,1.5-1,1.8c-0.6,0.3-1.5-0.4-1.7,0.5c-0.2,0.9-1.5,2.5-1.9,3.4
				c-0.4,1-0.6,1-1,1c-0.4,0-0.7,0.5-1.3-0.8c-0.6-1.3-1.4-1.6-1.9-1.2c-0.5,0.5-0.6,1.7-1.1,2.2c-0.5,0.5-1.1,1.1-1.3,1.9
				c-0.2,0.8-0.4,2.5-0.3,6.4c0.1,3.9-0.4,4.9-1,4.5c-0.6-0.4-1.3-0.5-2-2.9c-0.7-2.3-0.8-2.9-1.4-4.6c-0.6-1.7-1.2-1.3-1.6-2.2
				c-0.4-0.9-0.3-1.9-0.9-2.5c-0.5-0.6-1.2-1.1-1.9-1.1c-0.8,0-1.3,0.2-1.6-0.1c-0.3-0.3-0.7-0.8-1.1-1.6c-0.4-0.8-0.8-1.3-1.4-1.4
				c-0.6-0.1-0.8,0.1-0.8,0.8c0,0.8-0.4,1.8-0.7,2.5c-0.3,0.6-0.5,1.9-1,2.3c-0.5,0.4-0.7,0-1.2-0.8c-0.5-0.8-1.2-1.6-1.9-2.2
				c-0.7-0.7-1.3-1-1.8-0.6c-0.5,0.4-0.5,2-1.3,1.8c-0.7-0.2-0.6-0.7-1.5-1.8c-0.9-1.1-1.8-1.5-2.2-1.4c-0.4,0.1,0.1,0.9-0.5,1.3
				c-0.6,0.4-1.3,0.5-2.1-0.5c-0.7-1-0.8-1.6-1.6-1.4c-0.9,0.2-1.8,1.2-2.3,0.7c-0.5-0.5-1.4-0.7-2.3-0.9c-0.8-0.2-2.5-0.8-3-0.8
				c0,0-0.1,0-0.1,0c0,0,0,0,0,0c0,0,0,0,0,0c0,0,0,0,0,0.1c-0.1,0.5,0.5,2.3,0.5,3.1c0.1,0.8,0.3,1.8,0.7,2.4
				c0.4,0.6-0.7,1.4-0.9,2.3c-0.2,0.8,0.3,0.9,1.3,1.8c0.9,0.8,0.7,1.5,0.3,2.1c-0.4,0.6-1.2,0-1.3,0.4c-0.2,0.4,0.2,1.3,1.2,2.3
				c1,1,1.6,0.9,1.7,1.7c0.1,0.8-1.5,0.6-1.9,1.1c-0.4,0.5-0.2,1.1,0.4,1.8c0.6,0.8,1.3,1.5,2,2.1c0.8,0.6,1.1,0.8,0.7,1.3
				c-0.4,0.4-1.7,0.5-2.3,0.8c-0.7,0.3-1.8,0.6-2.5,0.5c-0.8-0.1-0.9,0.2-0.9,0.8c0,0.6,0.5,1,1.3,1.5c0.8,0.5,1.3,0.9,1.5,1.2
				c0.3,0.3,0,0.8-0.1,1.6c-0.1,0.8,0.3,1.4,0.9,2c0.6,0.6,1.6,0.6,2.4,1.1c0.8,0.5,0.4,1.1,2,1.8c1.6,0.7,2.2,0.9,4.5,1.8
				c2.3,0.9,2.4,1.6,2.7,2.3c0.3,0.7-0.7,1.1-4.6,0.6c-3.9-0.5-5.5-0.4-6.4-0.3c-0.8,0.1-1.5,0.7-2,1.1c-0.5,0.4-1.8,0.3-2.3,0.8
				c-0.5,0.5-0.2,1.3,1,2c1.3,0.7,0.7,0.9,0.7,1.3c0,0.4-0.1,0.6-1.1,0.9c-1,0.3-2.7,1.5-3.6,1.6c-0.9,0.1-0.3,1-0.7,1.6
				c-0.3,0.6-1.1,0.3-1.8,0.8c-0.8,0.5-1.1,0.8-1.4,1.4c-0.3,0.7-1,0.5-1.7,1c-0.7,0.5-0.9,0.3-1.3,0.8c-0.3,0.5,0.2,0.8,1,1.3
				c0.8,0.5-0.3,0.9,0.3,1.4c0.6,0.5,1.7-0.1,3.3,0.1c1.6,0.2,1,1.4,2.5,1.8c1.4,0.4,1.6-0.1,2.4-0.1c0.8,0,0.9,1.3,1.2,2.2
				c0.3,0.9,0.8,0.5,2.3,0.5c1.4,0,2.4,0.2,3,0.4c0.6,0.2-0.1,0.8-0.2,1.5c-0.2,0.7,0.1,0.8,1.3,0.7c1.2-0.1,1.8,0,3.1,0.2
				c1.3,0.2,2.8,0.4,4.3,0.4c1.5,0,2.4-0.6,3.9-1.1c1.5-0.5,1.4,0,1.1,0.8c-0.3,0.8-0.6,1.4-1.6,2.5c-1,1.1-0.3,1.4,0.3,2.5
				c0.6,1.1,0.3,1.6,0.3,2c0,0.4,0.3,0.5,0.7,0.6c0.3,0.1,0.4,1.3,0.5,1.5c0.1,0.2,1.3-0.4,2.6-1c1.3-0.6,2.4-0.8,2.4-0.8
				s1,1.1,3.8,0.3c2.8-0.8,3.3-1.8,4-2c0.8-0.3,2,1.8,2.4,2c0.4,0.3,0.5-0.3,1.4-1.9c0.9-1.6,1.5-0.4,3.2-1.5c1.7-1.1,1.7-1.4,2.9-2
				c1.3-0.6,1.2-0.8,1.5-2.2c0.3-1.3,1.1-1.9,1.7-2.4c0.6-0.5,0.4,0,0.7-4.7c0.4-5,0.5-1,7.1,5.2C70.4,72.8,76,82,76.5,82
				c0.4,0,1.1-1.7,1.4-2.6C78.9,79.2,80.5,78.7,80.6,78.3z"/>
		</g>
	</g>
	<g>
		<path class="st0" d="M8.9,104H0.7v-8.8h1.5v7.4h6.8L8.9,104L8.9,104z"/>
		<path class="st0" d="M32.8,104h-1.6l-1-2h-5.9l-1,2h-1.6l4.6-8.8h1.8L32.8,104z M29.4,100.8l-2.2-4.2l-2.3,4.2H29.4z"/>
		<path class="st0" d="M55.6,99.5c1,0.3,1.5,1.1,1.5,2.2c0,1.5-1.1,2.3-3.3,2.3h-7v-8.8h7.1c0.9,0,1.6,0.2,2.1,0.7
			c0.5,0.4,0.8,1,0.8,1.7C56.7,98.5,56.3,99.1,55.6,99.5z M53.9,98.9c0.4,0,0.7-0.1,1-0.3c0.3-0.2,0.4-0.5,0.4-0.8
			c0-0.4-0.1-0.6-0.4-0.8c-0.2-0.2-0.6-0.3-1-0.3h-5.7v2.3L53.9,98.9L53.9,98.9z M53.8,102.7c1.2,0,1.8-0.4,1.8-1.2
			c0-0.8-0.5-1.3-1.6-1.3h-5.8v2.5L53.8,102.7C53.8,102.7,53.8,102.7,53.8,102.7z"/>
		<path class="st0" d="M95.6,97.3c-1.3-0.7-2.6-1-4-1c-0.9,0-1.6,0.1-2.1,0.3c-0.5,0.2-0.7,0.5-0.7,0.9c0,0.4,0.3,0.7,0.8,0.8
			c0.4,0.1,1,0.2,1.8,0.3c1.2,0.1,2,0.1,2.4,0.2c1.1,0.1,1.9,0.4,2.4,0.8s0.8,1,0.8,1.7c0,0.9-0.4,1.6-1.2,2.2s-2,0.8-3.5,0.8
			c-2.2,0-4-0.5-5.2-1.5l0.8-1.1c1.4,0.8,2.8,1.3,4.4,1.3c1,0,1.8-0.1,2.4-0.4c0.5-0.3,0.8-0.7,0.8-1.1c0-0.6-0.4-0.9-1.1-1.1
			c-0.4-0.1-1.4-0.2-3-0.3c-1.4-0.1-2.5-0.3-3-0.6c-0.7-0.3-1-0.9-1-1.7c0-0.8,0.4-1.5,1.2-1.9c0.8-0.5,1.9-0.7,3.3-0.7
			c1.9,0,3.5,0.4,4.7,1.3L95.6,97.3z"/>
		<path class="st0" d="M121.8,97.3l-1.3,0.5c-0.9-0.9-2.1-1.4-3.7-1.4c-1.2,0-2.2,0.3-3,0.9c-0.8,0.6-1.1,1.4-1.1,2.4
			c0,1,0.4,1.8,1.1,2.4c0.8,0.6,1.8,0.9,3.1,0.9c1.5,0,2.8-0.5,3.7-1.4l1.2,0.7c-0.6,0.7-1.3,1.3-2.1,1.6c-0.8,0.3-1.7,0.5-2.9,0.5
			c-1.5,0-2.8-0.4-3.9-1.2c-1.2-0.9-1.8-2-1.8-3.5c0-1.4,0.6-2.6,1.8-3.5c1-0.8,2.3-1.2,3.8-1.2C119,95,120.7,95.7,121.8,97.3z"/>
		<path class="st0" d="M138.1,104h-1.5v-8.8h1.5V104z"/>
		<path class="st0" d="M162.5,104h-9.2v-8.8h8.8v1.3h-7.4v2.2h5.1v1.3h-5.1v2.6h7.7L162.5,104L162.5,104z"/>
		<path class="st0" d="M187,104h-1.8l-6.7-7.2v7.2h-1.4v-8.8h1.8l6.7,7.2v-7.2h1.5L187,104L187,104z"/>
		<path class="st0" d="M212.5,97.3l-1.3,0.5c-0.9-0.9-2.1-1.4-3.7-1.4c-1.2,0-2.2,0.3-3,0.9c-0.8,0.6-1.1,1.4-1.1,2.4
			c0,1,0.4,1.8,1.1,2.4c0.8,0.6,1.8,0.9,3.1,0.9c1.5,0,2.8-0.5,3.7-1.4l1.2,0.7c-0.6,0.7-1.3,1.3-2.1,1.6c-0.8,0.3-1.7,0.5-2.9,0.5
			c-1.5,0-2.8-0.4-3.9-1.2c-1.2-0.9-1.8-2-1.8-3.5c0-1.4,0.6-2.6,1.8-3.5c1-0.8,2.3-1.2,3.8-1.2C209.7,95,211.3,95.7,212.5,97.3z"/>
		<path class="st0" d="M236.5,104h-9.2v-8.8h8.8v1.3h-7.4v2.2h5.1v1.3h-5.1v2.6h7.7L236.5,104L236.5,104z"/>
		<path class="st0" d="M258.7,97.3c-1.3-0.7-2.6-1-4-1c-0.9,0-1.6,0.1-2.1,0.3c-0.5,0.2-0.7,0.5-0.7,0.9c0,0.4,0.3,0.7,0.8,0.8
			c0.4,0.1,1,0.2,1.8,0.3c1.2,0.1,2,0.1,2.4,0.2c1.1,0.1,1.9,0.4,2.4,0.8c0.5,0.4,0.8,1,0.8,1.7c0,0.9-0.4,1.6-1.2,2.2
			c-0.8,0.5-2,0.8-3.5,0.8c-2.2,0-4-0.5-5.2-1.5l0.8-1.1c1.4,0.8,2.8,1.3,4.4,1.3c1,0,1.8-0.1,2.4-0.4c0.5-0.3,0.8-0.7,0.8-1.1
			c0-0.6-0.4-0.9-1.1-1.1c-0.4-0.1-1.4-0.2-3-0.3c-1.4-0.1-2.5-0.3-3-0.6c-0.7-0.3-1-0.9-1-1.7c0-0.8,0.4-1.5,1.2-1.9
			c0.8-0.5,1.9-0.7,3.3-0.7c1.9,0,3.5,0.4,4.7,1.3L258.7,97.3z"/>
	</g>
	<g>
		<path class="st0" d="M16,99.9c0,0.3-0.1,0.5-0.3,0.7c-0.2,0.2-0.5,0.3-0.8,0.3c-0.3,0-0.6-0.1-0.8-0.3c-0.2-0.2-0.3-0.5-0.3-0.7
			c0-0.3,0.1-0.5,0.3-0.7c0.2-0.2,0.5-0.3,0.8-0.3c0.3,0,0.6,0.1,0.8,0.3C15.9,99.3,16,99.6,16,99.9z"/>
		<path class="st0" d="M39.3,99.9c0,0.3-0.1,0.5-0.3,0.7c-0.2,0.2-0.5,0.3-0.8,0.3s-0.6-0.1-0.8-0.3c-0.2-0.2-0.3-0.5-0.3-0.7
			c0-0.3,0.1-0.5,0.3-0.7c0.2-0.2,0.5-0.3,0.8-0.3c0.3,0,0.6,0.1,0.8,0.3C39.2,99.3,39.3,99.6,39.3,99.9z"/>
		<path class="st0" d="M105.5,99.9c0,0.3-0.1,0.5-0.3,0.7c-0.2,0.2-0.5,0.3-0.8,0.3s-0.6-0.1-0.8-0.3c-0.2-0.2-0.3-0.5-0.3-0.7
			c0-0.3,0.1-0.5,0.3-0.7c0.2-0.2,0.5-0.3,0.8-0.3c0.3,0,0.6,0.1,0.8,0.3C105.4,99.3,105.5,99.6,105.5,99.9z"/>
		<path class="st0" d="M129.2,99.9c0,0.3-0.1,0.5-0.3,0.7c-0.2,0.2-0.5,0.3-0.8,0.3c-0.3,0-0.6-0.1-0.8-0.3
			c-0.2-0.2-0.3-0.5-0.3-0.7c0-0.3,0.1-0.5,0.3-0.7c0.2-0.2,0.5-0.3,0.8-0.3c0.3,0,0.6,0.1,0.8,0.3
			C129.1,99.3,129.2,99.6,129.2,99.9z"/>
		<path class="st0" d="M146.9,99.9c0,0.3-0.1,0.5-0.3,0.7c-0.2,0.2-0.5,0.3-0.8,0.3c-0.3,0-0.6-0.1-0.8-0.3
			c-0.2-0.2-0.3-0.5-0.3-0.7c0-0.3,0.1-0.5,0.3-0.7c0.2-0.2,0.5-0.3,0.8-0.3c0.3,0,0.6,0.1,0.8,0.3
			C146.8,99.3,146.9,99.6,146.9,99.9z"/>
		<path class="st0" d="M195.7,99.9c0,0.3-0.1,0.5-0.3,0.7c-0.2,0.2-0.5,0.3-0.8,0.3c-0.3,0-0.6-0.1-0.8-0.3
			c-0.2-0.2-0.3-0.5-0.3-0.7c0-0.3,0.1-0.5,0.3-0.7c0.2-0.2,0.5-0.3,0.8-0.3c0.3,0,0.6,0.1,0.8,0.3
			C195.5,99.3,195.7,99.6,195.7,99.9z"/>
		<path class="st0" d="M220.6,99.9c0,0.3-0.1,0.5-0.3,0.7c-0.2,0.2-0.5,0.3-0.8,0.3c-0.3,0-0.6-0.1-0.8-0.3
			c-0.2-0.2-0.3-0.5-0.3-0.7c0-0.3,0.1-0.5,0.3-0.7c0.2-0.2,0.5-0.3,0.8-0.3c0.3,0,0.6,0.1,0.8,0.3
			C220.5,99.3,220.6,99.6,220.6,99.9z"/>
		<path class="st0" d="M243.7,99.9c0,0.3-0.1,0.5-0.3,0.7c-0.2,0.2-0.5,0.3-0.8,0.3s-0.6-0.1-0.8-0.3c-0.2-0.2-0.3-0.5-0.3-0.7
			c0-0.3,0.1-0.5,0.3-0.7c0.2-0.2,0.5-0.3,0.8-0.3c0.3,0,0.6,0.1,0.8,0.3C243.6,99.3,243.7,99.6,243.7,99.9z"/>
		<path class="st0" d="M170.9,99.9c0,0.3-0.1,0.5-0.3,0.7c-0.2,0.2-0.5,0.3-0.8,0.3s-0.6-0.1-0.8-0.3c-0.2-0.2-0.3-0.5-0.3-0.7
			c0-0.3,0.1-0.5,0.3-0.7c0.2-0.2,0.5-0.3,0.8-0.3c0.3,0,0.6,0.1,0.8,0.3C170.8,99.3,170.9,99.6,170.9,99.9z"/>
	</g>
</g>
<g id="Layer_1_2_">
</g>
</svg>
